<svg width="51" height="33" viewBox="0 0 51 33" fill="none" xmlns="http://www.w3.org/2000/svg">
<path d="M11.6122 24.9819C10.1444 24.9819 8.67875 24.4826 7.554 23.4889L7.4875 23.4304C5.97983 22.0992 3.57968 22.0634 2.02271 23.3491C1.65767 23.6509 1.08522 23.6333 0.743928 23.3113C0.402633 22.9892 0.421858 22.4834 0.786675 22.1823C3.06062 20.3048 6.56562 20.3565 8.76628 22.3001L8.83278 22.3586C10.3404 23.69 12.7404 23.7258 14.2973 22.4399L14.6099 22.1818C16.8834 20.3044 20.3886 20.3563 22.5891 22.3001L22.6556 22.3586C24.1635 23.69 26.5634 23.7256 28.1204 22.4399L28.4325 22.182C30.706 20.3048 34.2112 20.3563 36.4121 22.2999L36.4795 22.3594C37.986 23.69 40.3864 23.7256 41.9431 22.4397L42.2553 22.1818C44.5292 20.3044 48.034 20.3561 50.2349 22.2997C50.5884 22.6117 50.5884 23.1176 50.2349 23.4296C49.8818 23.7418 49.3089 23.7416 48.9556 23.4296C47.4482 22.0986 45.048 22.0632 43.4913 23.3487L43.1792 23.6065C40.9052 25.484 37.4005 25.4323 35.1996 23.4887L35.1322 23.4292C33.6256 22.0986 31.2253 22.063 29.6685 23.3489L29.3564 23.6067C27.0824 25.4842 23.5777 25.4325 21.3768 23.4889L21.3103 23.4304C19.8026 22.099 17.4027 22.0634 15.8457 23.3491L15.5332 23.6071C14.422 24.5249 13.0158 24.9817 11.6122 24.9819ZM11.612 17.563C10.1444 17.563 8.67875 17.0639 7.554 16.0702L7.4875 16.0117C5.97983 14.6803 3.57968 14.6448 2.02271 15.9306C1.65767 16.232 1.08522 16.2149 0.743928 15.8927C0.402633 15.5705 0.421858 15.0648 0.786675 14.7636C3.06062 12.8861 6.56585 12.938 8.76628 14.8814L8.83278 14.94C9.91343 15.8945 11.4532 16.1833 12.8109 15.7964V3.97906C12.8109 2.66602 11.6014 1.59786 10.1145 1.59786H10.0417C8.55481 1.59786 7.34524 2.66602 7.34524 3.97906V4.53672C7.34524 4.97792 6.94016 5.33564 6.44055 5.33564C5.94093 5.33564 5.53586 4.97792 5.53586 4.53672V3.97906C5.53586 1.78501 7.55716 0 10.0417 0H10.1145C12.599 0 14.6203 1.78501 14.6203 3.97906V10.1917H24.4181V3.97906C24.4181 2.66602 23.2086 1.59786 21.7217 1.59786H21.6489C20.1622 1.59786 18.9524 2.66602 18.9524 3.97906V4.53672C18.9524 4.97792 18.5474 5.33564 18.0477 5.33564C17.5481 5.33564 17.1431 4.97792 17.1431 4.53672V3.97906C17.1431 1.78501 19.1644 0 21.6489 0H21.7217C24.2062 0 26.2275 1.78501 26.2275 3.97906V15.8909C26.9128 15.7657 27.5694 15.4762 28.1204 15.0211L28.4325 14.7634C30.706 12.8857 34.2114 12.9376 36.4121 14.8812L36.4795 14.9408C37.986 16.2712 40.3864 16.3069 41.9431 15.0211L42.2553 14.7634C44.5292 12.8857 48.034 12.9378 50.2349 14.8812C50.5884 15.1934 50.5884 15.6991 50.2349 16.0111C49.8818 16.3231 49.3085 16.3231 48.9556 16.0111C47.4482 14.6799 45.0478 14.6446 43.4913 15.9304L43.1792 16.1881C40.905 18.0656 37.4 18.0136 35.1996 16.0702L35.1322 16.0107C33.6256 14.6801 31.2253 14.6446 29.6685 15.9304L29.3564 16.1883C27.082 18.0658 23.5772 18.0138 21.3768 16.0704L21.3103 16.0119C19.8026 14.6805 17.4027 14.6448 15.8457 15.9306L15.5332 16.1887C14.4217 17.1063 13.0158 17.563 11.612 17.563ZM18.5311 13.3886C19.9987 13.3886 21.4643 13.8878 22.5891 14.8814L22.6556 14.94C23.1638 15.3888 23.7735 15.6904 24.4181 15.8435V11.7896H14.6203V14.7546C15.7299 13.8428 17.1315 13.3886 18.5311 13.3886Z" fill="#737373"/>
<path fill-rule="evenodd" clip-rule="evenodd" d="M7.554 31.507C8.67875 32.5007 10.1444 33 11.6122 33C13.0158 32.9998 14.422 32.543 15.5332 31.6252L15.8457 31.3672C17.4027 30.0815 19.8026 30.1171 21.3103 31.4485L21.3768 31.507C23.5777 33.4506 27.0824 33.5023 29.3564 31.6248L29.6685 31.367C31.2253 30.0811 33.6256 30.1167 35.1322 31.4473L35.1996 31.5068C37.4005 33.4504 40.9052 33.5021 43.1792 31.6246L43.4913 31.3668C45.048 30.0813 47.4482 30.1167 48.9556 31.4477C49.3089 31.7597 49.8818 31.7599 50.2349 31.4477C50.5884 31.1357 50.5884 30.6298 50.2349 30.3178C48.034 28.3742 44.5292 28.3225 42.2553 30.1999L41.9431 30.4578C40.3864 31.7437 37.986 31.7081 36.4795 30.3775L36.4121 30.318C34.2112 28.3744 30.706 28.3229 28.4325 30.2001L28.1204 30.458C26.5634 31.7437 24.1635 31.7081 22.6556 30.3767L22.5891 30.3182C20.3886 28.3744 16.8834 28.3225 14.6099 30.1999L14.2973 30.458C12.7404 31.7439 10.3404 31.7081 8.83278 30.3767L8.76628 30.3182C6.56562 28.3746 3.06062 28.3229 0.786675 30.2003C0.421858 30.5015 0.402633 31.0073 0.743928 31.3294C1.08522 31.6514 1.65767 31.669 2.02271 31.3672C3.57968 30.0815 5.97983 30.1173 7.4875 31.4485L7.554 31.507Z" fill="#737373"/>
</svg>
