<svg width="51" height="32" viewBox="0 0 51 32" fill="none" xmlns="http://www.w3.org/2000/svg">
<path d="M47.8489 21.9325C43.9729 7.39617 36.4612 0 25.5122 0C14.5392 0 7.02748 7.39617 3.15146 21.9158L0.531385 30.9482C0.495446 31.0714 0.490296 31.2006 0.516328 31.326C0.542359 31.4513 0.598886 31.5695 0.681619 31.6717C0.767138 31.7734 0.876478 31.8558 1.00139 31.9126C1.12631 31.9695 1.26354 31.9994 1.40274 32H49.5977C49.7361 32.0001 49.8727 31.9707 49.9969 31.9141C50.1211 31.8574 50.2295 31.7751 50.3138 31.6733C50.398 31.5716 50.4559 31.4533 50.4828 31.3275C50.5097 31.2018 50.505 31.072 50.469 30.9482L47.8489 21.9325ZM17.9164 7.70226C20.5725 6.19409 23.1085 5.42609 25.5122 5.42609C27.9159 5.42609 30.4038 6.17739 33.0359 7.65217C34.1033 8.25673 35.0489 9.02884 35.8302 9.93391V22.4946C35.8287 23.7615 35.2841 24.976 34.3162 25.8714C33.3483 26.7667 32.0362 27.2696 30.6682 27.2696H14.5271L16.8467 8.40904C17.1855 8.15114 17.5429 7.91499 17.9164 7.70226ZM12.7123 27.2696H10.9456L12.8265 14.976C13.079 13.3436 13.7486 11.7905 14.7795 10.4459L12.7123 27.2696ZM25.6384 30.3304H10.4889L10.6992 28.9391H30.6682C32.5139 28.9377 34.2836 28.2584 35.5892 27.0503C36.8949 25.8422 37.6299 24.2039 37.633 22.4946V13.0337C37.871 13.6959 38.0381 14.3781 38.1318 15.0706L39.7243 26.5294C39.79 27.0041 39.7458 27.4863 39.5947 27.9439C39.4436 28.4016 39.1891 28.8242 38.8481 29.1837C38.507 29.5433 38.0873 29.8315 37.6167 30.0292C37.1461 30.2269 36.6354 30.3296 36.1187 30.3304H25.6384ZM40.163 30.3304C40.1805 30.317 40.1966 30.3021 40.2111 30.2859C40.722 29.748 41.1032 29.1153 41.3291 28.4301C41.555 27.7448 41.6205 27.0229 41.5211 26.3123L39.9346 14.8536C39.7064 13.0943 39.0517 11.4057 38.0194 9.91382C36.9871 8.42198 35.6039 7.16559 33.9734 6.23861C31.0588 4.56904 28.2104 3.75652 25.5122 3.75652C22.814 3.75652 19.9175 4.608 16.9729 6.27757C16.4352 6.58709 15.923 6.93308 15.4406 7.3127C13.0509 9.19916 11.4938 11.8336 11.0658 14.7144L8.66202 30.297H2.57456L4.90018 22.3332C8.55385 8.62609 15.4826 1.66957 25.5122 1.66957C35.5418 1.66957 42.4586 8.62609 46.1182 22.3499L48.4258 30.3304H40.163Z" fill="#737373"/>
</svg>
