<svg width="49" height="42" viewBox="0 0 49 42" fill="none" xmlns="http://www.w3.org/2000/svg">
<path d="M15.7948 30.9275H14.2311C13.7991 30.9275 13.4492 31.2561 13.4492 31.6615C13.4492 32.067 13.7991 32.3956 14.2311 32.3956H15.7948C16.2268 32.3956 16.5767 32.067 16.5767 31.6615C16.5767 31.2561 16.2269 30.9275 15.7948 30.9275Z" fill="#737373"/>
<path d="M39.5129 39.736H37.9491C37.5172 39.736 37.1672 40.0646 37.1672 40.47C37.1672 40.8755 37.5172 41.204 37.9491 41.204H39.5129C39.9448 41.204 40.2948 40.8755 40.2948 40.47C40.2948 40.0646 39.9448 39.736 39.5129 39.736Z" fill="#737373"/>
<path d="M44.2565 36.7998H42.6927C42.2608 36.7998 41.9108 37.1284 41.9108 37.5338C41.9108 37.9393 42.2608 38.2679 42.6927 38.2679H44.2565C44.6884 38.2679 45.0384 37.9393 45.0384 37.5338C45.0384 37.1284 44.6884 36.7998 44.2565 36.7998Z" fill="#737373"/>
<path d="M34.7693 33.8637H33.2055C32.7736 33.8637 32.4236 34.1923 32.4236 34.5977C32.4236 35.0032 32.7736 35.3318 33.2055 35.3318H34.7693C35.2012 35.3318 35.5512 35.0032 35.5512 34.5977C35.5512 34.1923 35.2012 33.8637 34.7693 33.8637Z" fill="#737373"/>
<path d="M6.30772 33.8637H4.74393C4.31202 33.8637 3.96204 34.1923 3.96204 34.5977C3.96204 35.0032 4.31202 35.3318 4.74393 35.3318H6.30772C6.73963 35.3318 7.08962 35.0032 7.08962 34.5977C7.08962 34.1923 6.73963 33.8637 6.30772 33.8637Z" fill="#737373"/>
<path d="M36.3957 21.4526C33.6238 18.3238 29.5164 16.3837 25.2821 16.1695V5.94623C27.0645 6.28719 28.4098 7.77006 28.4098 9.5425C28.4098 9.94797 28.7598 10.2765 29.1917 10.2765C29.6236 10.2765 29.9736 9.94797 29.9736 9.5425C29.9736 7.38921 28.5547 5.54229 26.5491 4.77916C26.9521 4.6496 27.3793 4.58132 27.8176 4.58132C28.8611 4.58132 29.8431 4.96343 30.5821 5.65729C30.7348 5.80059 30.935 5.8722 31.135 5.8722C31.3351 5.8722 31.5353 5.80059 31.688 5.65729C31.9934 5.37051 31.9934 4.90584 31.688 4.61914C30.6535 3.64793 29.279 3.11318 27.8177 3.11318C27.0731 3.11318 26.3514 3.25262 25.6853 3.5173C26.324 2.3045 27.6556 1.46805 29.1917 1.46805C29.6236 1.46805 29.9736 1.13949 29.9736 0.734025C29.9736 0.328559 29.6236 0 29.1917 0C27.2033 0 25.4589 1.00086 24.5002 2.49389C23.5416 1.00077 21.7972 0 19.8088 0C19.3768 0 19.0269 0.328559 19.0269 0.734025C19.0269 1.13949 19.3768 1.46805 19.8088 1.46805C21.345 1.46805 22.6764 2.3045 23.3151 3.5173C22.6491 3.25262 21.9274 3.11318 21.1828 3.11318C19.7214 3.11318 18.3469 3.64793 17.3124 4.61914C17.007 4.90593 17.007 5.3706 17.3124 5.65729C17.6179 5.94389 18.1129 5.94389 18.4183 5.65729C19.1573 4.96334 20.1392 4.58132 21.1828 4.58132C21.6211 4.58132 22.0481 4.64951 22.4512 4.77916C20.4457 5.54229 19.0268 7.38921 19.0268 9.5425C19.0268 9.94797 19.3767 10.2765 19.8087 10.2765C20.2406 10.2765 20.5906 9.94797 20.5906 9.5425C20.5906 7.77006 21.9359 6.28719 23.7182 5.94623V16.1695C19.4839 16.3838 15.3766 18.324 12.6047 21.4528C12.3285 21.7645 12.3738 22.2274 12.7058 22.4866C12.8519 22.6006 13.0292 22.6562 13.2054 22.6562C13.4296 22.6562 13.6523 22.5661 13.8071 22.3915C16.4556 19.4019 20.453 17.617 24.5001 17.617C28.5472 17.617 32.5447 19.4018 35.1932 22.3914C35.4694 22.7032 35.9623 22.7456 36.2944 22.4865C36.6265 22.2271 36.6717 21.7642 36.3957 21.4526Z" fill="#737373"/>
<path d="M48.5599 22.3397C48.1712 22.1624 47.7037 22.3147 47.515 22.6793C46.7569 24.1449 45.2087 25.0552 43.4747 25.0552C41.7408 25.0552 40.1927 24.1448 39.4344 22.6793C39.3037 22.4265 39.0306 22.2659 38.7311 22.2659C38.4316 22.2659 38.1585 22.4266 38.0278 22.6793C37.2696 24.1449 35.7214 25.0552 33.9875 25.0552C32.2535 25.0552 30.7054 24.1448 29.9472 22.6793C29.8164 22.4265 29.5433 22.2659 29.2438 22.2659C28.9444 22.2659 28.6712 22.4266 28.5405 22.6793C27.7824 24.1449 26.2342 25.0552 24.5002 25.0552C22.7663 25.0552 21.2182 24.1448 20.4599 22.6793C20.3292 22.4265 20.056 22.2659 19.7566 22.2659C19.4571 22.2659 19.184 22.4266 19.0533 22.6793C18.2951 24.1449 16.7469 25.0552 15.0129 25.0552C13.279 25.0552 11.7309 24.1448 10.9726 22.6793C10.8419 22.4265 10.5688 22.2659 10.2693 22.2659C9.96986 22.2659 9.69672 22.4266 9.56599 22.6793C8.80783 24.1449 7.25964 25.0552 5.52569 25.0552C3.79173 25.0552 2.24354 24.1449 1.48528 22.6793C1.29665 22.3146 0.829045 22.1624 0.440489 22.3397C0.0520296 22.5168 -0.1099 22.9559 0.0787309 23.3206C1.08515 25.2662 3.22316 26.5234 5.52559 26.5234C7.3831 26.5234 9.13341 25.7053 10.2692 24.3675C11.4049 25.7053 13.1553 26.5234 15.0129 26.5234C16.8704 26.5234 18.6207 25.7053 19.7565 24.3675C20.8922 25.7053 22.6426 26.5234 24.5001 26.5234C26.3576 26.5234 28.1079 25.7053 29.2437 24.3675C30.3795 25.7053 32.1299 26.5234 33.9874 26.5234C35.8449 26.5234 37.5952 25.7053 38.731 24.3675C39.8667 25.7053 41.6171 26.5234 43.4746 26.5234C45.7771 26.5234 47.9152 25.2662 48.9215 23.3206C49.1102 22.9559 48.9482 22.5167 48.5599 22.3397Z" fill="#737373"/>
</svg>
