<svg width="31" height="30" viewBox="0 0 31 30" fill="none" xmlns="http://www.w3.org/2000/svg">
<path d="M29.1875 14.5547C29.6953 14.5547 30.125 14.9844 30.125 15.5V25.5C30.125 28.0391 28.0391 30.125 25.5 30.125H5.5C2.92969 30.125 0.875 28.0391 0.875 25.5V5.5C0.875 2.92969 2.92969 0.875 5.5 0.875H15.5C16.0156 0.875 16.4453 1.28125 16.4453 1.8125C16.4453 2.32031 16.0156 2.75 15.5 2.75H5.5C3.96094 2.75 2.75 3.96094 2.75 5.5V25.5C2.75 27.0078 3.96094 28.25 5.5 28.25H25.5C27.0078 28.25 28.25 27.0078 28.25 25.5V15.5C28.25 14.9844 28.6797 14.5547 29.1875 14.5547ZM19.375 2.04688L22.7109 5.38281L13.3203 14.8047C13.0391 15.0859 12.8125 15.4375 12.6406 15.8516L11.4375 18.8906C11.0859 19.7578 11.7578 20.4297 12.625 20.0781L15.6641 18.875C16.0781 18.7031 16.4297 18.4766 16.7109 18.1953L26.1328 8.77344L29.4688 12.1094C30.0469 12.6875 30.9141 12.1094 30.6016 11.3438L27.6563 4.15625C27.4844 3.73438 27.0391 3.48438 26.5859 3.5625L19.3984 4.50781C18.6328 4.62031 18.0547 5.48750 19.375 2.04688ZM24.5859 7.09375L15.7109 15.9688C15.6016 16.0781 15.4609 16.1563 15.3047 16.2031L13.6172 16.8438L14.2578 15.1563C14.3047 15 14.3828 14.8594 14.4922 14.75L23.3672 5.87500L24.5859 7.09375ZM18.5 25.5C22.7422 25.5 26.1953 22.0469 26.1953 17.8047C26.1953 17.2891 25.7656 16.8594 25.25 16.8594C24.7344 16.8594 24.3047 17.2891 24.3047 17.8047C24.3047 21.0156 21.7109 23.6094 18.5 23.6094C15.2891 23.6094 12.6953 21.0156 12.6953 17.8047C12.6953 17.2891 12.2656 16.8594 11.75 16.8594C11.2344 16.8594 10.8047 17.2891 10.8047 17.8047C10.8047 22.0469 14.2578 25.5 18.5 25.5Z" fill="#737373"/>
</svg>
