<svg xmlns="http://www.w3.org/2000/svg" viewBox="0 0 2048 2048" width="2048" height="2048" fill="none">
<g transform="translate(0.000000,2048.000000) scale(0.100000,-0.100000)" fill="#de3151">
<path d="M8268 20464 c-203 -49 -371 -215 -423 -419 -29 -114 -13 -280 36 -378 12 -23 395 -638 850 -1367 l829 -1326 -196 -314 c-108 -173 -262 -421 -342 -550 -80 -129 -287 -462 -460 -740 -173 -278 -361 -579 -417 -670 -56 -91 -338 -543 -625 -1005 -716 -1150 -1898 -3056 -2245 -3620 -78 -126 -241 -390 -362 -585 -121 -195 -454 -733 -740 -1195 -286 -462 -758 -1222 -1048 -1690 -290 -467 -617 -994 -725 -1170 -109 -176 -249 -403 -312 -505 -192 -310 -831 -1343 -1191 -1925 -187 -302 -425 -686 -529 -852 -224 -360 -257 -420 -297 -539 -84 -250 -92 -472 -25 -723 113 -432 467 -764 924 -868 70 -16 314 -17 3375 -20 3026 -3 3306 -2 3375 13 182 39 328 152 411 316 62 123 59 -7 59 2179 0 1329 4 2032 11 2100 51 500 248 926 588 1267 219 220 422 353 717 468 236 92 476 136 739 136 185 -1 321 -18 511 -67 521 -134 944 -445 1228 -904 141 -228 214 -425 279 -746 22 -110 22 -110 27 -2205 5 -2095 5 -2095 29 -2159 54 -145 173 -277 307 -341 138 -65 -119 -61 3509 -58 3290 3 3290 3 3390 26 361 83 651 303 813 619 168 328 186 674 52 1020 -31 82 -162 307 -367 633 -111 176 -1065 1715 -1648 2660 -432 699 -878 1421 -1092 1765 -463 745 -707 1138 -838 1350 -488 791 -1761 2844 -2840 4585 -186 300 -367 592 -403 650 -36 58 -248 400 -472 760 -224 360 -489 788 -590 950 -101 162 -412 664 -693 1114 -280 451 -512 826 -514 835 -3 13 446 738 1624 2616 87 139 117 320 78 469 -47 181 -190 332 -375 397 -52 18 -87 23 -175 23 -129 1 -220 -23 -314 -84 -81 -52 -124 -99 -196 -209 -66 -102 -850 -1352 -1151 -1833 -98 -158 -181 -287 -184 -287 -3 0 -268 421 -590 937 -821 1315 -792 1270 -855 1328 -137 127 -347 182 -527 138z m2049 -4696 c39 -62 185 -297 325 -523 140 -225 319 -513 398 -640 922 -1483 1717 -2764 2215 -3570 680 -1100 1001 -1620 1445 -2335 70 -113 281 -455 470 -760 189 -305 481 -778 650 -1050 169 -272 372 -601 452 -730 80 -129 275 -444 433 -700 158 -256 433 -699 610 -985 177 -286 434 -700 570 -920 136 -220 336 -542 443 -715 107 -173 286 -461 397 -640 111 -179 284 -457 384 -618 101 -162 187 -306 192 -322 14 -38 -11 -97 -46 -110 -17 -7 -1028 -10 -2920 -10 l-2894 0 -4 1788 c-3 1975 1 1826 -68 2166 -190 932 -810 1740 -1670 2176 -575 292 -1221 402 -1869 319 -379 -48 -650 -128 -997 -294 -196 -94 -339 -181 -510 -309 -742 -559 -1193 -1374 -1273 -2301 -6 -76 -10 -747 -10 -1832 l0 -1713 -2895 0 c-3178 0 -2941 -5 -2963 59 -6 16 -8 40 -5 53 4 13 63 115 133 228 319 517 831 1342 1363 2200 320 514 696 1122 837 1350 141 228 404 654 585 945 523 845 917 1481 1083 1750 85 138 425 687 755 1220 600 968 875 1414 1225 1980 360 582 968 1564 1195 1930 127 204 356 573 510 820 154 248 399 641 545 875 389 624 679 1090 758 1217 38 62 72 113 75 113 4 0 38 -51 76 -112z"/>
</g>
</svg>
