<svg width="45" height="35" viewBox="0 0 45 35" fill="none" xmlns="http://www.w3.org/2000/svg">
<path d="M36.7236 10.1805C36.4014 10.1498 36.1633 9.88023 36.1963 9.57656C36.2292 9.2763 36.5186 9.05452 36.8445 9.08523C37.5696 9.15688 38.2617 9.36502 38.8953 9.71987C39.2029 9.89047 39.4922 10.0952 39.7668 10.334C39.8914 10.0508 40.0452 9.78811 40.2209 9.54244C40.6128 9.00334 41.1218 8.55978 41.7224 8.23564C42.0044 8.0821 42.3669 8.17422 42.5281 8.43695C42.6929 8.69967 42.594 9.03746 42.312 9.18759C41.8652 9.42643 41.488 9.7574 41.1987 10.1566C40.9167 10.549 40.7153 11.0096 40.6165 11.5248C40.5945 11.6715 40.5139 11.808 40.3748 11.9002C40.1111 12.0776 39.7412 12.0196 39.5508 11.7739C39.1809 11.2894 38.7524 10.9209 38.2874 10.6616C37.8076 10.392 37.2803 10.2351 36.7236 10.1805ZM13.5461 14.2033V32.4269H15.8166L18.4607 29.7177H17.0581V28.0629H21.4014L16.5015 23.0029L17.8198 21.8974L20.7861 24.958V24.8386H28.0481C28.3667 24.8386 28.6487 24.9955 28.8062 25.2309L30.9521 28.0595H34.9841C35.2515 28.0595 35.4932 28.1687 35.6543 28.3461L40.0708 32.4269H45V34.0817H0.256348V32.4269H12.1655V14.2033H0.692139C0.311279 14.2033 0 13.9167 0 13.5584C0 13.5379 0 13.5175 0.00366211 13.4936C0.032959 10.2794 1.47217 7.37581 3.78296 5.27059C6.06445 3.19949 9.19189 1.89951 12.6489 1.85515C12.7148 1.83468 12.7881 1.82444 12.8613 1.82444C12.9346 1.82444 13.0078 1.83468 13.0774 1.85515C16.5161 1.91315 19.6216 3.20972 21.8921 5.274C24.2175 7.39287 25.6604 10.3204 25.6714 13.5584C25.6714 13.9132 25.3638 14.1999 24.9829 14.1999V14.2033H13.5461ZM18.2153 32.4303H37.5513L34.6179 29.7212H20.8594L18.2153 32.4303ZM23.7927 28.0629H28.7769L27.5903 26.4968H22.2766L23.7927 28.0629ZM30.7324 3.67717C30.3552 3.72153 30.011 3.47586 29.9597 3.12442C29.9121 2.77298 30.1758 2.45225 30.553 2.40449C31.7468 2.25777 32.9004 2.39084 33.9441 2.82416C34.574 3.08689 35.1562 3.45539 35.6799 3.9399C35.9656 3.34279 36.3538 2.81734 36.8298 2.37719C37.6172 1.65043 38.6316 1.16251 39.7888 0.974847C40.166 0.91343 40.5212 1.15227 40.5872 1.5003C40.6531 1.85174 40.3967 2.1827 40.0232 2.24412C39.1516 2.38401 38.3899 2.7491 37.8076 3.2882C37.229 3.82048 36.8188 4.53359 36.6394 5.37636H36.6357C36.6028 5.53673 36.5039 5.68685 36.3464 5.7858C36.0315 5.9837 35.603 5.90864 35.3906 5.6152C34.834 4.85091 34.1492 4.31863 33.3838 4.00131C32.5818 3.66011 31.6809 3.56116 30.7324 3.67717ZM20.929 6.19525C19.9915 5.34224 18.8892 4.63254 17.6733 4.11732C18.1421 4.74855 18.5376 5.46848 18.8599 6.26349C19.6106 8.10939 19.9768 10.3784 20.0134 12.9169H24.2688C24.0857 10.2965 22.8442 7.93879 20.929 6.19525ZM14.8608 3.30526C14.4324 3.23702 13.9966 3.18925 13.5535 3.16196V12.9169H18.6365C18.6035 10.5353 18.2629 8.41989 17.5708 6.71729C16.9556 5.19893 16.062 4.02179 14.8608 3.30526ZM12.1692 3.15854C11.7334 3.18243 11.3013 3.22678 10.8801 3.29161C9.66431 4.01155 8.75976 5.19893 8.14087 6.73776C7.45605 8.43353 7.11914 10.5456 7.08618 12.9135H12.1692V3.15854ZM8.07495 4.08661C6.82983 4.60865 5.7019 5.32518 4.74609 6.19866C2.83081 7.9422 1.58936 10.2999 1.40625 12.9169H5.71289C5.74585 10.392 6.11206 8.12986 6.85547 6.28737C7.1814 5.46848 7.58789 4.72807 8.07495 4.08661Z" fill="#737373"/>
</svg>
