<svg width="37" height="36" viewBox="0 0 37 36" fill="none" xmlns="http://www.w3.org/2000/svg">
<path d="M21.7471 27.9461C21.7807 28.1277 21.9039 28.2914 22.0896 28.4009C22.2411 28.4903 22.4242 28.5378 22.6109 28.5378C22.653 28.5378 22.6953 28.5355 22.7374 28.5305L35.3506 27.0661C35.6528 27.0311 35.9099 26.8734 36.0285 26.6503C36.1472 26.4273 36.1103 26.1714 35.9311 25.9754L19.7822 8.30621C19.5464 8.04814 19.1186 7.95126 18.7463 8.07114C18.374 8.19112 18.1531 8.4972 18.2114 8.81244L21.7471 27.9461ZM33.6716 25.8622L23.3483 27.0608L20.4545 11.4006L33.6716 25.8622Z" fill="#737373"/>
<path d="M36.766 29.8414C36.6007 29.6073 36.2795 29.4696 35.9415 29.4894C35.864 29.4939 29.0027 29.8901 21.4255 30.5912L20.3022 24.5108H20.302L15.8819 0.591729C15.8345 0.335154 15.6102 0.121164 15.3006 0.0372716C14.991 -0.0467274 14.6482 0.0137434 14.4126 0.193559L13.9899 0.51614C3.67056 8.39235 -1.25079 19.8023 0.825417 31.0376C0.888947 31.3818 1.26193 31.6294 1.68811 31.6294C1.73015 31.6294 1.77286 31.627 1.8157 31.6221L19.4725 29.5721L19.6912 30.7561C19.2576 30.7985 18.8229 30.8417 18.3887 30.8859C2.33536 32.5211 0.122559 33.9776 0.122559 35.308C0.122559 35.6902 0.513409 36 0.995591 36H24.3904C24.4324 36 24.4743 35.9977 24.5158 35.9929L25.8021 35.845C30.1678 35.3431 34.145 33.425 36.7142 30.5827C36.9112 30.3644 36.9315 30.0755 36.766 29.8414ZM2.43542 30.1512C0.807553 19.874 5.23826 9.51276 14.403 2.13842L19.2194 28.2026L2.43542 30.1512ZM25.5513 34.4753L24.3273 34.616H3.475C4.3025 34.3622 5.54919 34.0569 7.42554 33.7219C10.3658 33.1972 14.3511 32.6824 19.2708 32.1921C25.1727 31.6039 31.0279 31.1919 34.02 30.9972C31.7832 32.8604 28.7869 34.1033 25.5513 34.4753Z" fill="#737373"/>
</svg>
