<svg width="47" height="40" viewBox="0 0 47 40" fill="none" xmlns="http://www.w3.org/2000/svg">
<path d="M43.8908 15.5292H42.4123V15.2491C42.4123 13.896 41.2363 12.7952 39.7907 12.7952C38.3452 12.7952 37.1692 13.896 37.1692 15.2491V15.5292H9.83071V15.2491C9.83071 14.9634 9.77774 14.6892 9.68145 14.434L21.0543 10.4912C21.7316 11.0518 22.6207 11.3931 23.5937 11.3931C24.7751 11.3931 25.8331 10.8906 26.5378 10.1023L32.1149 12.3721C32.2365 12.4215 32.3631 12.4451 32.4876 12.4451C32.8491 12.4451 33.1934 12.248 33.3468 11.9179C33.553 11.474 33.3357 10.9577 32.8614 10.7648L27.3542 8.52342C27.4054 8.2897 27.4324 8.04772 27.4324 7.80008C27.4324 6.12097 26.1956 4.70712 24.5301 4.31494V0.876376C24.5301 0.392346 24.1108 0 23.5938 0C23.0767 0 22.6576 0.392346 22.6576 0.876376V5.08305C22.6576 5.56708 23.0767 5.95942 23.5938 5.95942C24.6754 5.95942 25.5554 6.78124 25.5596 7.79286L24.248 7.25908C23.7738 7.06617 23.2222 7.26956 23.016 7.71338C22.8099 8.15728 23.0272 8.67354 23.5014 8.86653L24.6661 9.34059C24.3574 9.52955 23.9895 9.64039 23.5939 9.64039C22.5097 9.64039 21.6278 8.8148 21.6278 7.79999C21.6278 7.31596 21.2087 6.92362 20.6916 6.92362C20.1745 6.92362 19.7553 7.31596 19.7553 7.79999C19.7553 8.21941 19.8333 8.62198 19.975 8.99645L8.33259 13.0326C7.99193 12.8806 7.61097 12.7953 7.20918 12.7953C5.76365 12.7953 4.58764 13.8961 4.58764 15.2492V15.5293H3.10916C1.39476 15.5292 0 16.8501 0 18.4736V37.0896C0 38.6944 1.39476 40 3.10916 40H43.8908C45.6052 40 47 38.6944 47 37.0896V18.4736C47 16.8501 45.6052 15.5292 43.8908 15.5292ZM39.0419 15.2492C39.0419 14.8626 39.3779 14.5481 39.7908 14.5481C40.2038 14.5481 40.5398 14.8626 40.5398 15.2492V15.5293H39.0418V15.2492H39.0419ZM6.46021 15.2492C6.46021 14.8626 6.79618 14.5481 7.20918 14.5481C7.62217 14.5481 7.95815 14.8626 7.95815 15.2492V15.5293H6.46021V15.2492ZM45.1275 37.0896C45.1275 37.7279 44.5728 38.2472 43.8909 38.2472H3.10916C2.42729 38.2472 1.87256 37.7279 1.87256 37.0896V18.4736C1.87256 17.8276 2.43877 17.2819 3.10916 17.2819H43.8908C44.5611 17.2819 45.1274 17.8277 45.1274 18.4736L45.1275 37.0896Z" fill="#737373"/>
<path d="M8.56673 19.7627C8.04964 19.7627 7.63049 20.155 7.63049 20.639V34.9243C7.63049 35.4083 8.04964 35.8006 8.56673 35.8006C9.08382 35.8006 9.50297 35.4083 9.50297 34.9243V20.639C9.50297 20.155 9.08382 19.7627 8.56673 19.7627Z" fill="#737373"/>
<path d="M15.9631 19.7627C15.446 19.7627 15.0269 20.155 15.0269 20.639V34.9243C15.0269 35.4083 15.446 35.8006 15.9631 35.8006C16.4802 35.8006 16.8993 35.4083 16.8993 34.9243V20.639C16.8994 20.155 16.4802 19.7627 15.9631 19.7627Z" fill="#737373"/>
<path d="M23.4532 19.7627C22.9361 19.7627 22.517 20.155 22.517 20.639V34.9243C22.517 35.4083 22.9361 35.8006 23.4532 35.8006C23.9702 35.8006 24.3894 35.4083 24.3894 34.9243V20.639C24.3894 20.155 23.9702 19.7627 23.4532 19.7627Z" fill="#737373"/>
<path d="M30.9433 19.7627C30.4263 19.7627 30.007 20.155 30.007 20.639V34.9243C30.007 35.4083 30.4263 35.8006 30.9433 35.8006C31.4603 35.8006 31.8795 35.4083 31.8795 34.9243V20.639C31.8795 20.155 31.4603 19.7627 30.9433 19.7627Z" fill="#737373"/>
<path d="M38.4332 19.7627C37.9162 19.7627 37.497 20.155 37.497 20.639V34.9243C37.497 35.4083 37.9162 35.8006 38.4332 35.8006C38.9502 35.8006 39.3695 35.4083 39.3695 34.9243V20.639C39.3696 20.155 38.9502 19.7627 38.4332 19.7627Z" fill="#737373"/>
<path d="M36.2241 12.0789L35.5752 11.8159C35.1009 11.6234 34.5497 11.8276 34.3441 12.2718C34.1385 12.716 34.3566 13.232 34.8311 13.4243L35.48 13.6873C35.6012 13.7365 35.7273 13.7597 35.8515 13.7597C36.2134 13.7597 36.5581 13.562 36.7112 13.2314C36.9167 12.7872 36.6986 12.2712 36.2241 12.0789Z" fill="#737373"/>
</svg>
