<svg width="27" height="37" viewBox="0 0 27 37" fill="none" xmlns="http://www.w3.org/2000/svg">
<path d="M23.5763 3.7836C21.8938 3.7836 20.5249 5.2307 20.5249 7.00937V13.1189C20.5249 14.9417 19.2613 16.4577 17.6116 16.741V4.54336C17.6116 2.03815 15.6837 0 13.3139 0C10.9441 0 9.01608 2.03815 9.01608 4.54336V22.0115C7.36638 21.7282 6.10281 20.2122 6.10281 18.3895V12.2799C6.10281 10.5012 4.73394 9.05414 3.0514 9.05414C1.36887 9.05414 0 10.5012 0 12.2799V18.3895C0 23.7723 3.99558 28.1872 9.016 28.4941V35.8191H7.34047C7.03202 35.8191 6.78196 36.0835 6.78196 36.4096C6.78196 36.7356 7.03202 37 7.34047 37H19.2872C19.5956 37 19.8457 36.7356 19.8457 36.4096C19.8457 36.0835 19.5956 35.8191 19.2872 35.8191H17.6116V23.2235C22.632 22.9166 26.6276 18.5017 26.6276 13.1189V7.0093C26.6277 5.23062 25.2588 3.7836 23.5763 3.7836ZM25.5107 13.1189C25.5107 18.0489 21.7167 22.0597 17.0532 22.0597C16.7447 22.0597 16.4947 22.3241 16.4947 22.6501V35.8191H10.1331V27.9207C10.1331 27.5947 9.88303 27.3303 9.57459 27.3303C4.9111 27.3303 1.1171 23.3195 1.1171 18.3896V12.28C1.1171 11.1524 1.9848 10.2351 3.05148 10.2351C4.11809 10.2351 4.98586 11.1524 4.98586 12.28V18.3896C4.98586 20.8645 6.74852 22.9109 9.01615 23.2033V24.2246C9.01615 24.5507 9.26621 24.815 9.57466 24.815C9.88311 24.815 10.1332 24.5507 10.1332 24.2246V4.54336C10.1331 2.68927 11.56 1.18085 13.3139 1.18085C15.0677 1.18085 16.4946 2.68927 16.4946 4.54336V18.9539C16.4946 19.28 16.7447 19.5443 17.0531 19.5443C17.3616 19.5443 17.6116 19.28 17.6116 18.9539V17.9326C19.8793 17.6403 21.6419 15.5937 21.6419 13.1189V7.0093C21.6419 5.88174 22.5097 4.96438 23.5763 4.96438C24.6429 4.96438 25.5107 5.88174 25.5107 7.0093V13.1189Z" fill="#737373"/>
<path d="M13.3139 31.4904C13.0054 31.4904 12.7553 31.7547 12.7553 32.0808V33.2617C12.7553 33.5877 13.0054 33.8521 13.3139 33.8521C13.6223 33.8521 13.8724 33.5877 13.8724 33.2617V32.0808C13.8724 31.7547 13.6223 31.4904 13.3139 31.4904Z" fill="#737373"/>
<path d="M14.8191 11.8095C14.5106 11.8095 14.2606 12.0739 14.2606 12.4V13.5808C14.2606 13.9069 14.5106 14.1712 14.8191 14.1712C15.1275 14.1712 15.3776 13.9069 15.3776 13.5808V12.4C15.3776 12.0739 15.1275 11.8095 14.8191 11.8095Z" fill="#737373"/>
<path d="M11.8086 7.87335C11.5002 7.87335 11.2501 8.13771 11.2501 8.46378V9.64463C11.2501 9.9707 11.5002 10.2351 11.8086 10.2351C12.1171 10.2351 12.3671 9.9707 12.3671 9.64463V8.46378C12.3671 8.13771 12.1171 7.87335 11.8086 7.87335Z" fill="#737373"/>
<path d="M23.5763 9.05423C23.2679 9.05423 23.0178 9.31858 23.0178 9.64466V10.8255C23.0178 11.1516 23.2679 11.4159 23.5763 11.4159C23.8847 11.4159 24.1348 11.1516 24.1348 10.8255V9.64466C24.1348 9.31858 23.8847 9.05423 23.5763 9.05423Z" fill="#737373"/>
<path d="M3.05141 16.1393C2.74296 16.1393 2.4929 16.4037 2.4929 16.7297V17.9106C2.4929 18.2367 2.74296 18.501 3.05141 18.501C3.35985 18.501 3.60992 18.2367 3.60992 17.9106V16.7297C3.60992 16.4037 3.35985 16.1393 3.05141 16.1393Z" fill="#737373"/>
</svg>
