<svg width="38" height="35" viewBox="0 0 38 35" fill="none" xmlns="http://www.w3.org/2000/svg">
<path fill-rule="evenodd" clip-rule="evenodd" d="M18.9985 3.36604e-06C18.8415 -0.000271624 18.6832 0.0163016 18.5275 0.0500504H18.5261C18.2188 0.116754 17.9317 0.248572 17.689 0.434597L16.7789 1.13281C16.7435 1.08532 16.7055 1.03869 16.6648 0.993621C16.3192 0.611772 15.8228 0.370023 15.285 0.324737C15.2279 0.319737 15.1604 0.315654 15.0833 0.316154C14.6126 0.319279 14.1567 0.473696 13.7938 0.75193L8.43923 4.85823C7.57989 5.51657 7.46277 6.70979 8.1792 7.49974C8.22009 7.54487 8.26342 7.58728 8.30789 7.62791L1.38651 12.9341C0.527196 13.5925 0.410027 14.7857 1.12647 15.5756C1.84199 16.3663 3.1389 16.4741 3.99747 15.8149L4.72983 15.2534V18.2904C3.54621 18.6789 2.69202 19.7196 2.69202 20.938C2.69202 22.1564 3.54621 23.1971 4.72983 23.5856V25.7901C3.54621 26.1786 2.69202 27.2193 2.69202 28.4377C2.69202 29.6561 3.54621 30.6968 4.72983 31.0853V34.375C4.72987 34.7202 5.03396 35 5.4091 35H32.5799C32.955 35 33.2591 34.7202 33.2591 34.375V31.0853C34.4428 30.6968 35.2969 29.6561 35.2969 28.4377C35.2969 27.2193 34.4428 26.1786 33.2591 25.7901V23.5856C34.4428 23.1971 35.2969 22.1564 35.2969 20.938C35.2969 19.7196 34.4428 18.6789 33.2591 18.2904V15.2534L33.9915 15.8149C34.8501 16.4741 36.1469 16.3663 36.8624 15.5756C37.5789 14.7857 37.4617 13.5925 36.6024 12.9341L33.2591 10.3707V3.09438C34.0287 2.94724 34.6177 2.31161 34.6177 1.56367C34.6177 0.708887 33.8485 0.00122403 32.9195 0.00122403H26.8061C25.877 0.00122403 25.1079 0.708887 25.1079 1.56367C25.1079 2.31161 25.6968 2.94724 26.4664 3.09438V5.16218L20.3 0.434559C19.9313 0.151825 19.4693 0.000822087 18.9985 3.36604e-06ZM18.9957 1.24874C19.1525 1.24881 19.3061 1.29929 19.4296 1.394L35.732 13.8936C36.0268 14.1193 36.0653 14.504 35.8196 14.7749C35.5742 15.046 35.1562 15.0815 34.8617 14.8554L22.826 5.62603C22.3837 5.28665 21.7118 5.57584 21.7116 6.10575V6.5635C21.7116 6.74743 21.5718 6.87598 21.3719 6.87598C21.172 6.87598 21.0323 6.74743 21.0323 6.5635V4.5433C21.0322 4.35801 20.9428 4.18229 20.7882 4.06358L19.4296 3.02236C19.1776 2.82894 18.8113 2.82894 18.5593 3.02236L15.5981 5.29279V4.25156C15.867 4.04541 16.1357 3.83908 16.4048 3.63269C16.7888 3.33814 17.0224 2.93661 17.1013 2.51212L18.5593 1.394C18.6403 1.33194 18.7351 1.28808 18.8379 1.26583H18.8393C18.8914 1.25452 18.9435 1.24874 18.9957 1.24874ZM26.8061 1.25118H32.9195C33.1194 1.25118 33.2591 1.37974 33.2591 1.56367C33.2591 1.7476 33.1194 1.87616 32.9195 1.87616H32.5799H27.1457H26.8061C26.6062 1.87616 26.4664 1.7476 26.4664 1.56367C26.4664 1.37974 26.6062 1.25118 26.8061 1.25118ZM15.094 1.56611C15.1064 1.56602 15.1276 1.56664 15.1603 1.56985C15.3401 1.58497 15.5053 1.66431 15.6207 1.79201C15.6212 1.79242 15.6214 1.79264 15.6221 1.79327C15.8673 2.06408 15.8288 2.44765 15.5345 2.67336C15.1845 2.94183 14.8341 3.21029 14.4838 3.479C14.3291 3.59771 14.2397 3.77343 14.2397 3.95872V6.87598C14.2397 7.05992 14.0999 7.18847 13.9 7.18847C13.7001 7.18847 13.5604 7.05992 13.5604 6.87598V5.52105C13.5601 4.99116 12.8883 4.70196 12.446 5.04133C11.6901 5.62079 10.9344 6.20038 10.1786 6.77955C9.88428 7.00519 9.46741 6.96973 9.22209 6.69899C8.97638 6.42807 9.01492 6.04346 9.30965 5.81767L14.6642 1.71137C14.7861 1.6179 14.9391 1.56719 15.094 1.56611ZM27.825 3.12611H31.9006V9.32951L27.825 6.20462V3.12611ZM18.9945 4.31504L19.6738 4.83626V6.5635C19.6738 7.41828 20.4429 8.12594 21.3719 8.12594C22.0269 8.12594 22.493 7.72109 22.7756 7.21411L31.9006 14.2122V18.1256C31.3241 18.1275 30.7658 18.1254 30.1918 18.1269C29.8801 17.7496 29.3917 17.5006 28.8439 17.5006H22.3908C21.839 17.5006 21.3476 17.7534 21.0363 18.1354C16.0721 18.133 11.1167 18.126 6.08836 18.1256V14.2122L7.06349 13.4639C7.34612 13.9706 7.81104 14.3757 8.46581 14.3757C9.39484 14.3757 10.164 13.6681 10.164 12.8133V11.0873L13.6479 8.41524C13.7308 8.42699 13.8138 8.43843 13.9 8.43843C14.8113 8.43843 15.5643 7.7564 15.5928 6.92359L18.9945 4.31504ZM12.2018 6.85523V6.87598C12.2018 7.17647 12.3008 7.4565 12.4645 7.69627L9.03894 10.3231C8.85706 10.463 8.76756 10.68 8.80279 10.8956C8.80483 10.907 8.8055 10.9204 8.8055 10.9384V12.8133C8.8055 12.9972 8.66578 13.1258 8.46587 13.1258C8.26596 13.1258 8.12624 12.9972 8.12624 12.8133V12.3568C8.12595 11.8269 7.45411 11.5377 7.01181 11.8771L3.12724 14.8555C2.83281 15.0816 2.41476 15.0461 2.16936 14.7749C1.92365 14.504 1.9622 14.1194 2.25692 13.8936L9.72358 8.1687C10.1923 8.1737 10.6644 8.03383 11.049 7.73903C11.4334 7.44444 11.8175 7.14987 12.2018 6.85523ZM22.3908 18.7506H28.8439C29.0438 18.7506 29.1835 18.8791 29.1835 19.0631V23.7504C29.1835 23.9343 29.0438 24.0629 28.8439 24.0629C28.644 24.0629 28.5043 23.9343 28.5043 23.7504V20.0005C28.5042 19.6554 28.2001 19.3756 27.825 19.3755H22.3908C22.1909 19.3755 22.0512 19.247 22.0512 19.0631C22.0512 18.8791 22.1909 18.7506 22.3908 18.7506ZM5.74873 19.3755H13.5603V22.5004H5.74873C4.79619 22.5004 4.05056 21.8144 4.05056 20.938C4.05056 20.0616 4.79619 19.3755 5.74873 19.3755ZM14.9189 19.3755H20.7271C20.8871 20.0836 21.5779 20.6255 22.3908 20.6255V33.75H14.9189V19.3755ZM30.5421 19.3755H32.2402C33.1928 19.3755 33.9384 20.0616 33.9384 20.938C33.9384 21.8144 33.1928 22.5004 32.2402 22.5004H30.5421V19.3755ZM23.7494 20.6255H27.1457V22.5004H23.7494V20.6255ZM6.08836 23.7504H13.5603V25.6253H6.08836V23.7504ZM23.7494 23.7504H27.1457C27.1457 24.6052 27.9149 25.3128 28.8439 25.3128C29.7729 25.3128 30.5421 24.6052 30.5421 23.7504H31.9006V25.6253H23.7494V23.7504ZM5.74873 26.8753H13.5603V30.0002H5.74873C4.79619 30.0002 4.05056 29.3141 4.05056 28.4377C4.05056 27.5613 4.79619 26.8753 5.74873 26.8753ZM23.7494 26.8753H32.2402C33.1928 26.8753 33.9384 27.5613 33.9384 28.4377C33.9384 29.3141 33.1928 30.0002 32.2402 30.0002H23.7494V26.8753ZM6.08836 31.2501H13.5603V33.75H6.08836V31.2501ZM23.7494 31.2501H31.9006V33.75H23.7494V31.2501Z" fill="#737373"/>
<path fill-rule="evenodd" clip-rule="evenodd" d="M3.74986 0.606323C3.5697 0.606323 3.39694 0.67214 3.26955 0.789346C3.14216 0.906552 3.07059 1.06555 3.07059 1.2313C3.07059 1.39706 3.14216 1.55601 3.26955 1.67322C3.39694 1.79042 3.5697 1.85628 3.74986 1.85628C3.93001 1.85628 4.1028 1.79042 4.23018 1.67322C4.35757 1.55601 4.42913 1.39706 4.42913 1.2313C4.42913 1.06555 4.35757 0.906552 4.23018 0.789346C4.1028 0.67214 3.93001 0.606323 3.74986 0.606323Z" fill="#737373"/>
<path fill-rule="evenodd" clip-rule="evenodd" d="M18.9945 8.75092C16.7517 8.75092 14.9189 10.4372 14.9189 12.5008C14.9189 14.5644 16.7517 16.2507 18.9945 16.2507C21.2374 16.2507 23.0701 14.5644 23.0701 12.5008C23.0701 10.4372 21.2374 8.75092 18.9945 8.75092ZM18.9945 10.0009C20.5032 10.0009 21.7116 11.1127 21.7116 12.5008C21.7116 13.8888 20.5032 15.0007 18.9945 15.0007C17.4859 15.0007 16.2775 13.8888 16.2775 12.5008C16.2775 11.1127 17.4859 10.0009 18.9945 10.0009Z" fill="#737373"/>
<path fill-rule="evenodd" clip-rule="evenodd" d="M20.3531 25.3128C20.1729 25.3128 20.0001 25.3787 19.8728 25.4959C19.7454 25.6131 19.6738 25.7721 19.6738 25.9378V27.8127C19.6738 27.9785 19.7454 28.1375 19.8728 28.2547C20.0001 28.3719 20.1729 28.4377 20.3531 28.4377C20.5332 28.4377 20.706 28.3719 20.8334 28.2547C20.9608 28.1375 21.0323 27.9785 21.0323 27.8127V25.9378C21.0323 25.7721 20.9608 25.6131 20.8334 25.4959C20.706 25.3787 20.5332 25.3128 20.3531 25.3128Z" fill="#737373"/>
<path fill-rule="evenodd" clip-rule="evenodd" d="M37.3207 2.65045C37.1406 2.65045 36.9678 2.71631 36.8404 2.83351C36.713 2.95072 36.6414 3.10968 36.6414 3.27543C36.6414 3.44118 36.713 3.60018 36.8404 3.71739C36.9678 3.83459 37.1406 3.90041 37.3207 3.90041C37.5009 3.90041 37.6736 3.83459 37.801 3.71739C37.9284 3.60018 38 3.44118 38 3.27543C38 3.10968 37.9284 2.95072 37.801 2.83351C37.6736 2.71631 37.5009 2.65045 37.3207 2.65045Z" fill="#737373"/>
<path fill-rule="evenodd" clip-rule="evenodd" d="M0.679269 20.5063C0.499116 20.5063 0.326351 20.5721 0.198963 20.6893C0.0715755 20.8066 0 20.9655 0 21.1313C0 21.297 0.0715755 21.456 0.198963 21.5732C0.326351 21.6904 0.499116 21.7562 0.679269 21.7562C0.859423 21.7562 1.03221 21.6904 1.1596 21.5732C1.28698 21.456 1.35854 21.297 1.35854 21.1313C1.35854 20.9655 1.28698 20.8066 1.1596 20.6893C1.03221 20.5721 0.859423 20.5063 0.679269 20.5063Z" fill="#737373"/>
<path fill-rule="evenodd" clip-rule="evenodd" d="M2.31712 6.12805C2.13696 6.12805 1.9642 6.19391 1.83681 6.31111C1.70942 6.42832 1.63785 6.58728 1.63785 6.75303C1.63785 6.91878 1.70942 7.07778 1.83681 7.19499C1.9642 7.31219 2.13696 7.37801 2.31712 7.37801C2.49727 7.37801 2.67006 7.31219 2.79744 7.19499C2.92483 7.07778 2.99639 6.91878 2.99639 6.75303C2.99639 6.58728 2.92483 6.42832 2.79744 6.31111C2.67006 6.19391 2.49727 6.12805 2.31712 6.12805Z" fill="#737373"/>
<path fill-rule="evenodd" clip-rule="evenodd" d="M35.588 9.11398C35.4078 9.11398 35.235 9.17984 35.1077 9.29704C34.9803 9.41425 34.9087 9.57321 34.9087 9.73896C34.9087 9.90472 34.9803 10.0637 35.1077 10.1809C35.235 10.2981 35.4078 10.3639 35.588 10.3639C35.7681 10.3639 35.9409 10.2981 36.0683 10.1809C36.1957 10.0637 36.2672 9.90472 36.2672 9.73896C36.2672 9.57321 36.1957 9.41425 36.0683 9.29704C35.9409 9.17984 35.7681 9.11398 35.588 9.11398Z" fill="#737373"/>
<path fill-rule="evenodd" clip-rule="evenodd" d="M36.6555 23.6373C36.4754 23.6373 36.3026 23.7031 36.1752 23.8203C36.0478 23.9375 35.9763 24.0965 35.9763 24.2622C35.9763 24.428 36.0478 24.587 36.1752 24.7042C36.3026 24.8214 36.4754 24.8872 36.6555 24.8872C36.8357 24.8872 37.0084 24.8214 37.1358 24.7042C37.2632 24.587 37.3348 24.428 37.3348 24.2622C37.3348 24.0965 37.2632 23.9375 37.1358 23.8203C37.0084 23.7031 36.8357 23.6373 36.6555 23.6373Z" fill="#737373"/>
<path fill-rule="evenodd" clip-rule="evenodd" d="M10.5555 0.415161C10.3754 0.415161 10.2026 0.481016 10.0752 0.598222C9.94781 0.715428 9.87625 0.874385 9.87625 1.04014C9.87625 1.20589 9.94781 1.36485 10.0752 1.48206C10.2026 1.59926 10.3754 1.66512 10.5555 1.66512C10.7357 1.66512 10.9084 1.59926 11.0358 1.48206C11.1632 1.36485 11.2348 1.20589 11.2348 1.04014C11.2348 0.874385 11.1632 0.715428 11.0358 0.598222C10.9084 0.481016 10.7357 0.415161 10.5555 0.415161Z" fill="#737373"/>
</svg>
