<svg width="41" height="38" viewBox="0 0 41 38" fill="none" xmlns="http://www.w3.org/2000/svg">
<path d="M40.9732 15.7067L38.9246 8.10668C38.8563 7.78999 38.5831 7.59999 38.2417 7.59999H28.3569L21.0329 0.189982C20.7598 -0.0633272 20.2817 -0.0633272 20.0086 0.189982L12.6847 7.59999H2.73152C2.39005 7.59999 2.11692 7.78999 2.04866 8.10668L0 15.7067C0 15.8967 0 16.0234 0.136604 16.2134C0.273208 16.4034 0.478074 16.4667 0.68294 16.4667H1.3658V37.3667C1.3658 37.7467 1.63893 38 2.04866 38H12.9748H16.3893H24.5839H27.9984H38.9246C39.3343 38 39.6074 37.7467 39.6074 37.3667V16.4667H40.2903C40.4952 16.4667 40.7 16.4667 40.8366 16.2767C40.9732 16.0867 41.0415 15.8967 40.9732 15.7067ZM39.4026 15.2H38.9246H28.7495V8.86668H37.6954L39.4026 15.2ZM25.2668 35.4667H27.3155V36.7334H25.2668V35.4667ZM20.4866 1.58337L27.3155 8.48668V15.8334V34.2001H25.2668V27.2334C25.2668 26.8534 24.9937 26.6001 24.5839 26.6001H16.3893C15.9796 26.6001 15.7064 26.8534 15.7064 27.2334V34.2001H13.6578V15.8334V8.48668L20.4866 1.58337ZM3.27786 8.86668H12.292V15.2H2.04866H1.57067L3.27786 8.86668ZM12.292 16.4667V34.2H2.73152V16.4667H12.292ZM2.73152 35.4667H12.292V36.7334H2.73152V35.4667ZM13.6578 35.4667H15.7064V36.7334H13.6578V35.4667ZM17.0721 36.7334V27.8667H23.901V36.7334H17.0721ZM28.7495 36.7334V35.4667H38.2416V36.7334H28.7495ZM38.2417 34.2H28.7495V16.4667H38.2416V34.2H38.2417Z" fill="#737373"/>
<path d="M22.5353 31.6667H21.8524C21.4427 31.6667 21.1696 31.92 21.1696 32.3C21.1696 32.68 21.4427 32.9333 21.8524 32.9333H22.5353C22.945 32.9333 23.2181 32.68 23.2181 32.3C23.2181 31.92 22.945 31.6667 22.5353 31.6667Z" fill="#737373"/>
<path d="M20.4867 13.9334C22.7402 13.9334 24.584 12.2234 24.584 10.1334C24.584 8.04337 22.7402 6.33337 20.4867 6.33337C18.2331 6.33337 16.3893 8.04337 16.3893 10.1334C16.3893 12.2234 18.2331 13.9334 20.4867 13.9334ZM17.8421 10.7667H19.8037V12.5859C18.8475 12.3556 18.0906 11.6535 17.8421 10.7667ZM21.1695 12.5859V10.7667H23.1311C22.8827 11.6535 22.1258 12.3556 21.1695 12.5859ZM23.1312 9.49999H21.1696V7.68074C22.1258 7.91119 22.8827 8.61315 23.1312 9.49999ZM19.8038 7.68074V9.49999H17.8422C18.0906 8.61315 18.8475 7.91119 19.8038 7.68074Z" fill="#737373"/>
<path d="M4.09735 24.0667H4.78021H10.2433H10.9262C11.3359 24.0667 11.6091 23.8134 11.6091 23.4334C11.6091 23.0534 11.3359 22.8001 10.9262 22.8001V18.3668C10.9262 17.9868 10.6531 17.7335 10.2433 17.7335H4.78021C4.37048 17.7335 4.09735 17.9868 4.09735 18.3668V22.8001C3.68762 22.8001 3.41449 23.0534 3.41449 23.4334C3.41449 23.8134 3.68762 24.0667 4.09735 24.0667ZM9.56047 22.8H8.19467V19H9.56047V22.8ZM5.46315 19H6.82895V22.8H5.46315V19Z" fill="#737373"/>
<path d="M4.09735 31.6667H4.78021H10.2433H10.9262C11.3359 31.6667 11.6091 31.4134 11.6091 31.0334C11.6091 30.6534 11.3359 30.4001 10.9262 30.4001V25.9667C10.9262 25.5867 10.6531 25.3334 10.2433 25.3334H4.78021C4.37048 25.3334 4.09735 25.5867 4.09735 25.9667V30.4001C3.68762 30.4001 3.41449 30.6534 3.41449 31.0334C3.41449 31.4134 3.68762 31.6667 4.09735 31.6667ZM9.56047 30.4H8.19467V26.6H9.56047V30.4ZM5.46315 26.6H6.82895V30.4H5.46315V26.6Z" fill="#737373"/>
<path d="M30.047 24.0667H30.7299H36.193H36.8758C37.2856 24.0667 37.5587 23.8134 37.5587 23.4334C37.5587 23.0534 37.2856 22.8001 36.8758 22.8001V18.3668C36.8758 17.9868 36.6027 17.7335 36.193 17.7335H30.7299C30.3201 17.7335 30.047 17.9868 30.047 18.3668V22.8001C29.6373 22.8001 29.3641 23.0534 29.3641 23.4334C29.3641 23.8134 29.6373 24.0667 30.047 24.0667ZM35.51 22.8H34.1442V19H35.51V22.8ZM31.4127 19H32.7785V22.8H31.4127V19Z" fill="#737373"/>
<path d="M36.8758 30.4V25.9667C36.8758 25.5867 36.6027 25.3334 36.193 25.3334H30.7299C30.3201 25.3334 30.047 25.5867 30.047 25.9667V30.4C29.6373 30.4 29.3641 30.6533 29.3641 31.0333C29.3641 31.4133 29.6373 31.6666 30.047 31.6666H30.7299H36.193H36.8758C37.2856 31.6666 37.5587 31.4133 37.5587 31.0333C37.5587 30.6533 37.2856 30.4 36.8758 30.4ZM31.4127 26.6H32.7785V30.4H31.4127V26.6ZM34.1443 30.4V26.6H35.5101V30.4H34.1443Z" fill="#737373"/>
<path d="M17.0722 24.0667H17.7551H23.2182H23.901C24.3108 24.0667 24.5839 23.8134 24.5839 23.4334C24.5839 23.0534 24.3108 22.8001 23.901 22.8001V18.3668C23.901 17.9868 23.6279 17.7335 23.2182 17.7335H17.7551C17.3453 17.7335 17.0722 17.9868 17.0722 18.3668V22.8001C16.6625 22.8001 16.3893 23.0534 16.3893 23.4334C16.3893 23.8134 16.6625 24.0667 17.0722 24.0667ZM22.5353 22.8H21.1695V19H22.5353V22.8ZM18.438 19H19.8038V22.8H18.438V19Z" fill="#737373"/>
</svg>
