<svg width="41" height="34" viewBox="0 0 41 34" fill="none" xmlns="http://www.w3.org/2000/svg">
<path d="M17.7652 26.5409C17.1467 23.8262 16.8766 19.8951 16.962 14.8564C16.9719 14.7876 16.9729 14.718 16.9659 14.6491C17.0109 12.3146 17.1313 9.77783 17.3245 7.10512C17.4587 5.24655 16.7866 3.47401 15.4326 2.11386C14.0952 0.770504 12.208 0 10.255 0C10.111 0 9.96468 0.00403359 9.81757 0.0121009C6.91468 0.177261 4.24632 1.52282 2.49671 3.70371C0.746399 5.88534 0.105618 8.66556 0.738353 11.3317L5.04992 29.4793C5.05398 29.4964 5.05851 29.5134 5.06367 29.5303C5.86195 32.162 8.45226 34 11.363 34C12.0362 34 12.7049 33.902 13.3497 33.7091C16.5795 32.7455 18.4777 29.6637 17.7652 26.5409ZM12.7623 31.9766C12.3072 32.1128 11.8365 32.1818 11.3631 32.1818C9.32226 32.1818 7.50484 30.898 6.93406 29.0566L2.6289 10.9361C2.1196 8.79061 2.63531 6.55317 4.04382 4.79757C5.45171 3.04263 7.59898 1.95985 9.9325 1.82703C10.0399 1.82124 10.1484 1.81823 10.255 1.81823C11.6736 1.81823 13.0451 2.37847 14.0176 3.35535C15.0014 4.3436 15.4895 5.63173 15.392 6.98228C15.2484 8.97249 15.1447 10.8885 15.0816 12.7052L10.4261 8.68918L10.1952 6.26663C10.1475 5.76653 9.67617 5.39719 9.14422 5.4423C8.61148 5.48703 8.21828 5.92876 8.26609 6.42886L8.49539 8.83336L6.69156 10.9131C6.35398 11.3025 6.41632 11.875 6.83101 12.192C7.2457 12.5089 7.85578 12.4505 8.19343 12.0611L9.59679 10.4432L15.0208 15.1221C14.9488 20.1584 15.2346 24.1268 15.8712 26.9217C16.3739 29.1246 15.0377 31.2977 12.7623 31.9766Z" fill="#737373"/>
<path d="M38.5033 3.7037C36.7538 1.52281 34.0853 0.177249 31.1802 0.0119421C31.0354 0.00402141 30.8891 6.10352e-05 30.7451 6.10352e-05C28.7921 6.10352e-05 26.9049 0.770491 25.5676 2.11385C24.2134 3.474 23.5415 5.24654 23.6756 7.10518C23.869 9.78024 23.9894 12.3193 24.0343 14.6556C24.0291 14.7153 24.0303 14.7755 24.0377 14.8352C24.1241 19.8841 23.8542 23.8224 23.2349 26.5408C22.5223 29.6638 24.4206 32.7455 27.6496 33.7088C28.2951 33.902 28.9638 34 29.637 34C32.5477 34 35.138 32.162 35.9363 29.5302C35.9414 29.5133 35.9459 29.4964 35.95 29.4793L40.2616 11.3315C40.8945 8.66555 40.2536 5.88533 38.5033 3.7037ZM34.0661 29.0565C33.4952 30.898 31.6779 32.1818 29.637 32.1818C29.1636 32.1818 28.6929 32.1127 28.2371 31.9764C25.9624 31.2978 24.6262 29.1247 25.1289 26.9214C25.7655 24.1269 26.0513 20.1585 25.9794 15.1225L31.4034 10.4431L36.965 16.8551L34.0661 29.0565ZM38.3712 10.9359L37.502 14.5945L32.5047 8.83313L32.734 6.42863C32.7817 5.92852 32.3885 5.48688 31.8559 5.44206C31.3232 5.39667 30.8527 5.76637 30.8049 6.2664L30.574 8.68902L25.9185 12.7055C25.8554 10.8885 25.7519 8.97248 25.6081 6.98219C25.5106 5.63165 25.9987 4.34359 26.9825 3.35527C27.955 2.37846 29.3263 1.81814 30.7451 1.81814C30.8517 1.81814 30.9602 1.82115 31.0652 1.82687C33.4012 1.95976 35.5484 3.04262 36.9563 4.79748C38.3648 6.55316 38.8805 8.79059 38.3712 10.9359Z" fill="#737373"/>
<path d="M5.38128 12.9162C4.84675 12.9162 4.41284 13.3235 4.41284 13.8253C4.41284 14.3281 4.84667 14.7345 5.38128 14.7345C5.91589 14.7345 6.34972 14.3281 6.34972 13.8253C6.34964 13.3236 5.91581 12.9162 5.38128 12.9162Z" fill="#737373"/>
</svg>
