<svg width="37" height="34" viewBox="0 0 37 34" fill="none" xmlns="http://www.w3.org/2000/svg">
<path fill-rule="evenodd" clip-rule="evenodd" d="M4.35295 12.75H4.39417C4.94986 5.61803 11.053 0 18.5 0C25.947 0 32.0501 5.61803 32.6059 12.75H32.6471C32.6471 12.8679 32.6408 12.984 32.6286 13.0983C32.6408 13.3348 32.6471 13.573 32.6471 13.8125C32.6471 17.785 30.9294 21.3658 28.1796 23.8856L36.6814 32.1861C37.1062 32.6011 37.1062 33.2739 36.6814 33.6889C36.2563 34.1037 35.5672 34.1037 35.1422 33.6889L26.4726 25.2242C24.4836 26.5514 22.1297 27.3959 19.5882 27.5848V32.9375C19.5882 33.5242 19.1009 34 18.5 34C17.8991 34 17.4118 33.5242 17.4118 32.9375V27.5848C14.8703 27.3959 12.5164 26.5514 10.5273 25.2242L1.85773 33.6889C1.43275 34.1037 0.743727 34.1037 0.31875 33.6889C-0.10625 33.2739 -0.10625 32.6011 0.31875 32.1861L8.8203 23.8856C6.07059 21.3658 4.35295 17.785 4.35295 13.8125C4.35295 13.573 4.35919 13.3348 4.37153 13.0983C4.35926 12.984 4.35295 12.8679 4.35295 12.75ZM18.5 2.125C12.167 2.125 6.98269 6.92654 6.55758 13.0044C6.62531 13.3136 6.82285 13.6682 7.23111 14.0609C7.76023 14.5699 8.5817 15.0771 9.68458 15.5257C11.8856 16.4212 15.0018 17 18.5 17C21.9982 17 25.1145 16.4212 27.3154 15.5257C28.4184 15.0771 29.2398 14.5699 29.7689 14.0609C30.1772 13.6682 30.3746 13.3136 30.4425 13.0044C30.0172 6.92654 24.8329 2.125 18.5 2.125ZM18.5 25.5C24.1782 25.5 28.9329 21.6402 30.162 16.4611C29.5671 16.8457 28.8887 17.1878 28.1524 17.4873C25.6273 18.5147 22.2139 19.125 18.5 19.125C14.7861 19.125 11.3728 18.5147 8.84747 17.4873C8.11134 17.1878 7.43298 16.8457 6.8381 16.4611C8.06711 21.6402 12.8219 25.5 18.5 25.5Z" fill="#B8B8B8"/>
</svg>
